<svg width="512" height="512" xmlns="http://www.w3.org/2000/svg">
 <rect width="512" height="512" rx="50" ry="50" fill="white" />
 <g>
  <title>Layer 1</title>
  <g filter="url(#_blur)" stroke="null">
   <g stroke="null" id="svg_2">
    <g stroke="null" fill=" rgb(0, 0, 0)" xml:space="preserve" baseProfile="tiny" version="1.2" id="svg_18">
     <g stroke="null" display=" none" id="svg_21">
      <g stroke="null" id="svg_22" class="fills">
       <rect stroke="null" y="60.18611" fill=" none" x="-2.13991" height="451.26008" width="458.06085"/>
      </g>
     </g>
     <g stroke="null" id="svg_19">
      <g stroke="null" id="svg_20" class="fills">
       <path stroke="null" d="m226.89052,60.1861c-126.5418,0 -229.03038,102.50241 -229.03038,229.0611c0,107.64897 73.85491,196.99253 173.49787,222.17951c-1.15007,-2.86572 -1.71539,-6.88161 -1.71539,-10.87797l0,-38.95011l-28.63367,0c-15.45704,0 -29.78364,-6.86213 -36.07958,-19.47508c-7.44591,-13.74369 -8.59588,-34.93426 -27.4837,-48.11258c-5.73062,-4.58121 -1.14997,-9.16243 5.14597,-8.59711c12.02646,3.43104 21.75298,11.46278 30.91417,23.47144c9.1612,12.02814 13.17653,14.89386 30.34896,14.89386c8.01123,0 20.60311,-0.56537 32.06425,-2.30035c6.29594,-16.04404 17.17243,-30.35305 30.34906,-37.21513c-76.72038,-9.16243 -113.36517,-46.96241 -113.36517,-98.50603c0,-22.34075 9.72642,-43.53132 25.7682,-61.85622c-5.14577,-17.75953 -12.02646,-54.40932 2.30014,-68.71832c34.36429,0 54.9673,22.34077 60.11316,28.05267c17.17243,-5.73141 36.07958,-9.16243 55.53251,-9.16243c20.03779,0 38.36029,3.43101 55.53262,9.16243c5.14597,-5.73141 25.76841,-28.05267 60.11327,-28.05267c13.74175,13.74366 7.44601,50.95879 1.71529,68.71832c16.04169,17.75954 25.20299,39.51548 25.20299,61.85622c0,51.54362 -36.07958,89.3436 -112.2151,97.35586c21.18766,10.87797 36.07958,41.79629 36.07958,64.70241l0,52.16745c0,1.71555 -0.56532,3.43109 -0.56532,5.14658c89.31215,-30.91837 153.44065,-115.66122 153.44065,-215.88275c0,-126.55868 -102.48858,-229.0611 -229.03038,-229.0611l0,0z"/>
      </g>
     </g>
    </g>
    <g stroke="null" fill=" rgb(0, 0, 0)" xml:space="preserve" id="svg_3">
     <g stroke="null" display=" none" id="svg_16">
      <g stroke="null" id="svg_17" class="fills">
       <rect stroke="null" y="2274.6531" fill=" none" transform="matrix(0.189845 0.0885382 -0.0885187 0.189854 -1058.02 -1333.65)" x="7683.49892" height="2513.58399" width="2513.36774"/>
      </g>
     </g>
     <g stroke="null" display=" none" id="svg_14">
      <g stroke="null" id="svg_15" class="fills">
       <rect stroke="null" fill=" rgb(255, 255, 255)" height="2513.58399" width="2513.36774" transform="matrix(0.189845 0.0885382 -0.0885187 0.189854 -1058.02 -1333.65)" y="2274.6531" x="7683.49892"/>
      </g>
     </g>
     <g stroke="null" id="svg_12">
      <g stroke="null" id="svg_13" class="fills">
       <path stroke="null" fill=" rgb(199, 125, 255)" d="m480.75997,213.14559l27.8243,-59.6778l-10.55113,-1.16035l-26.38416,56.5891l9.11098,4.24905z"/>
      </g>
     </g>
     <g stroke="null" id="svg_10">
      <g stroke="null" id="svg_11" class="fills">
       <path stroke="null" fill=" rgb(90, 24, 154)" d="m437.24134,163.41862l-118.21442,-12.98818c-1.08768,-0.11353 -2.1502,-0.41496 -3.13355,-0.87355c-0.9854,-0.45976 -1.90717,-1.08379 -2.69332,-1.84394l-85.92985,-82.21845l-39.91673,85.61321l0.10791,0.05037l-0.78011,1.06832c-4.74921,10.18574 31.71485,54.87547 89.69889,81.91751c57.98107,27.04081 115.52601,26.1937 120.27481,16.00809l0.3093,-1.28805l0.36004,0.16795l39.91704,-85.61329z"/>
      </g>
     </g>
     <g stroke="null" id="svg_8">
      <g stroke="null" id="svg_9" class="fills">
       <path stroke="null" fill=" rgb(60, 9, 108)" d="m235.15756,48.57653l88.38833,84.56785l121.58311,13.35647l52.90414,5.80659l10.55113,1.16035l5.55561,0.61058l-138.72588,-132.1807l-190.42247,-21.32433l50.16602,48.00319z"/>
      </g>
     </g>
     <g stroke="null" id="svg_6">
      <g stroke="null" id="svg_7" class="fills">
       <path stroke="null" fill=" rgb(199, 125, 255)" d="m458.92231,219.98409l-16.24503,34.84134c-2.77167,5.9448 -0.20538,13.00684 5.74566,15.7822c5.94531,2.7728 13.00735,0.20099 15.77902,-5.74371l16.24503,-34.84139c1.37182,-2.94325 1.42808,-6.16205 0.42325,-8.99407l-15.32448,-7.14688c-2.81688,1.04942 -5.25142,3.15927 -6.62345,6.10252z"/>
      </g>
     </g>
     <g stroke="null" id="svg_4">
      <g stroke="null" id="svg_5" class="fills">
       <path stroke="null" fill=" rgb(157, 78, 221)" d="m467.17042,206.80809l-2.99915,6.43257l1.37448,0.64091l15.32407,7.14673l1.36405,0.63625l2.99935,-6.43259l-4.47325,-2.08637l-9.11098,-4.24905l-4.47857,-2.08844z"/>
      </g>
     </g>
    </g>
   </g>
  </g>
 </g>
 <defs>
  <filter height="200%" width="200%" y="-50%" x="-50%" id="_blur">
   <feGaussianBlur stdDeviation="0.6" in="SourceGraphic"/>
  </filter>
 </defs>
</svg>