<svg width="815" xmlns="http://www.w3.org/2000/svg" height="815" id="screenshot-188b0942-3efa-803b-8007-b076f1c42791" viewBox="0 0 815 815" xmlns:xlink="http://www.w3.org/1999/xlink" fill="none" version="1.1"><g id="shape-188b0942-3efa-803b-8007-b076f1c42791" width="800" height="800" rx="0" ry="0" style="fill: rgb(0, 0, 0);"><g id="shape-188b0942-3efa-803b-8007-b076f1c59662" style="display: none;"><g class="fills" id="fills-188b0942-3efa-803b-8007-b076f1c59662"><rect width="815" height="815.0000000000018" x="0" transform="matrix(-1.000000, 0.000000, 0.000000, -1.000000, 815.000000, 815.000000)" style="fill: none;" ry="0" fill="none" rx="0" y="0"/></g></g><g id="shape-188b0942-3efa-803b-8007-b076f1c67c72"><g class="fills" id="fills-188b0942-3efa-803b-8007-b076f1c67c72"><path d="M407.5,713.125C398.4970703125,713.125,389.857421875,709.54345703125,383.490234375,703.17626953125L145.7822265625,465.4677734375C132.51708984375,452.21142578125,132.51708984375,430.705078125,145.7822265625,417.44873046875C159.046875,404.18359375,180.5361328125,404.18359375,193.80126953125,417.44873046875L373.54150390625,597.1806640625L373.54150390625,135.8330078125C373.54150390625,117.08056640625,388.7470703125,101.875,407.5,101.875C426.2529296875,101.875,441.45849609375,117.08056640625,441.45849609375,135.8330078125L441.45849609375,597.1806640625L621.19873046875,417.44873046875C634.4638671875,404.18359375,655.953125,404.18359375,669.2177734375,417.44873046875C682.48291015625,430.705078125,682.48291015625,452.21142578125,669.2177734375,465.4677734375L431.509765625,703.17626953125C425.142578125,709.54345703125,416.5029296875,713.125,407.5,713.125Z" fill-rule="evenodd" clip-rule="evenodd" style="fill: rgb(224, 170, 255);"/></g></g></g></svg>