<svg width="815" xmlns="http://www.w3.org/2000/svg" height="815" id="screenshot-188b0942-3efa-803b-8007-b07731a7fad6" viewBox="0 0 815 815" xmlns:xlink="http://www.w3.org/1999/xlink" fill="none" version="1.1"><g id="shape-188b0942-3efa-803b-8007-b07731a7fad6" width="800" height="800" rx="0" ry="0" style="fill: rgb(0, 0, 0);"><g id="shape-188b0942-3efa-803b-8007-b07731a7fad7" style="display: none;"><g class="fills" id="fills-188b0942-3efa-803b-8007-b07731a7fad7"><rect width="815" height="815.0000000000018" x="0" transform="matrix(1.000000, 0.000000, 0.000000, 1.000000, 0.000000, 0.000000)" style="fill: none;" ry="0" fill="none" rx="0" y="0"/></g></g><g id="shape-188b0942-3efa-803b-8007-b07731a7fad8"><g class="fills" id="fills-188b0942-3efa-803b-8007-b07731a7fad8"><path d="M407.5,101.875C416.5029296875,101.875,425.142578125,105.45654296875,431.509765625,111.82373046875L669.2177734375,349.531982421875C682.48291015625,362.78857421875,682.48291015625,384.294921875,669.2177734375,397.55126953125C655.953125,410.816162109375,634.4638671875,410.816162109375,621.19873046875,397.55126953125L441.45849609375,217.8193359375L441.45849609375,679.166748046875C441.45849609375,697.91943359375,426.2529296875,713.125,407.5,713.125C388.7470703125,713.125,373.54150390625,697.91943359375,373.54150390625,679.166748046875L373.54150390625,217.8193359375L193.80126953125,397.55126953125C180.5361328125,410.816162109375,159.046875,410.816162109375,145.7822265625,397.55126953125C132.51708984375,384.294921875,132.51708984375,362.78857421875,145.7822265625,349.531982421875L383.490234375,111.82373046875C389.857421875,105.45654296875,398.4970703125,101.875,407.5,101.875Z" fill-rule="evenodd" clip-rule="evenodd" style="fill: rgb(224, 170, 255);"/></g></g></g></svg>